<svg version="1.2" xmlns="http://www.w3.org/2000/svg" viewBox="0 0 7410 3900" width="200" height="105">
	<title>usa-svg</title>
	<style>
		.s0 { fill: #b22234 } 
		.s1 { fill: #000000;stroke: #ffffff;stroke-width: 300 } 
		.s2 { fill: #3c3b6e } 
		.s3 { fill: #ffffff } 
	</style>
	<path id="Layer" class="s0" d="m0 0h7410v3900h-7410z"/>
	<path id="Layer" class="s1" d="m0 450h7410m0 600h-7410m0 600h7410m0 600h-7410m0 600h7410m0 600h-7410"/>
	<path id="Layer" class="s2" d="m0 0h2964v2100h-2964z"/>
	<g id="Layer">
		<g id="s18">
			<g id="s9">
				<g id="s5">
					<g id="s4">
						<path id="s" class="s3" d="m247 90l70.5 217.1-184.6-134.2h228.2l-184.6 134.2z"/>
						<path id="s" class="s3" d="m247 510l70.5 217.1-184.6-134.2h228.2l-184.6 134.2z"/>
						<path id="s" class="s3" d="m247 930l70.5 217.1-184.6-134.2h228.2l-184.6 134.2z"/>
						<path id="s" class="s3" d="m247 1350l70.5 217.1-184.6-134.2h228.2l-184.6 134.2z"/>
					</g>
					<path id="s" class="s3" d="m247 1770l70.5 217.1-184.6-134.2h228.2l-184.6 134.2z"/>
				</g>
				<g id="s4">
					<path id="s" class="s3" d="m494 300l70.5 217.1-184.6-134.2h228.2l-184.6 134.2z"/>
					<path id="s" class="s3" d="m494 720l70.5 217.1-184.6-134.2h228.2l-184.6 134.2z"/>
					<path id="s" class="s3" d="m494 1140l70.5 217.1-184.6-134.2h228.2l-184.6 134.2z"/>
					<path id="s" class="s3" d="m494 1560l70.5 217.1-184.6-134.2h228.2l-184.6 134.2z"/>
				</g>
			</g>
			<g id="s9">
				<g id="s5">
					<g id="s4">
						<path id="s" class="s3" d="m741 90l70.5 217.1-184.6-134.2h228.2l-184.6 134.2z"/>
						<path id="s" class="s3" d="m741 510l70.5 217.1-184.6-134.2h228.2l-184.6 134.2z"/>
						<path id="s" class="s3" d="m741 930l70.5 217.1-184.6-134.2h228.2l-184.6 134.2z"/>
						<path id="s" class="s3" d="m741 1350l70.5 217.1-184.6-134.2h228.2l-184.6 134.2z"/>
					</g>
					<path id="s" class="s3" d="m741 1770l70.5 217.1-184.6-134.2h228.2l-184.6 134.2z"/>
				</g>
				<g id="s4">
					<path id="s" class="s3" d="m988 300l70.5 217.1-184.6-134.2h228.2l-184.6 134.2z"/>
					<path id="s" class="s3" d="m988 720l70.5 217.1-184.6-134.2h228.2l-184.6 134.2z"/>
					<path id="s" class="s3" d="m988 1140l70.5 217.1-184.6-134.2h228.2l-184.6 134.2z"/>
					<path id="s" class="s3" d="m988 1560l70.5 217.1-184.6-134.2h228.2l-184.6 134.2z"/>
				</g>
			</g>
		</g>
		<g id="s18">
			<g id="s9">
				<g id="s5">
					<g id="s4">
						<path id="s" class="s3" d="m1235 90l70.5 217.1-184.6-134.2h228.2l-184.6 134.2z"/>
						<path id="s" class="s3" d="m1235 510l70.5 217.1-184.6-134.2h228.2l-184.6 134.2z"/>
						<path id="s" class="s3" d="m1235 930l70.5 217.1-184.6-134.2h228.2l-184.6 134.2z"/>
						<path id="s" class="s3" d="m1235 1350l70.5 217.1-184.6-134.2h228.2l-184.6 134.2z"/>
					</g>
					<path id="s" class="s3" d="m1235 1770l70.5 217.1-184.6-134.2h228.2l-184.6 134.2z"/>
				</g>
				<g id="s4">
					<path id="s" class="s3" d="m1482 300l70.5 217.1-184.6-134.2h228.2l-184.6 134.2z"/>
					<path id="s" class="s3" d="m1482 720l70.5 217.1-184.6-134.2h228.2l-184.6 134.2z"/>
					<path id="s" class="s3" d="m1482 1140l70.5 217.1-184.6-134.2h228.2l-184.6 134.2z"/>
					<path id="s" class="s3" d="m1482 1560l70.5 217.1-184.6-134.2h228.2l-184.6 134.2z"/>
				</g>
			</g>
			<g id="s9">
				<g id="s5">
					<g id="s4">
						<path id="s" class="s3" d="m1729 90l70.5 217.1-184.6-134.2h228.2l-184.6 134.2z"/>
						<path id="s" class="s3" d="m1729 510l70.5 217.1-184.6-134.2h228.2l-184.6 134.2z"/>
						<path id="s" class="s3" d="m1729 930l70.5 217.1-184.6-134.2h228.2l-184.6 134.2z"/>
						<path id="s" class="s3" d="m1729 1350l70.5 217.1-184.6-134.2h228.2l-184.6 134.2z"/>
					</g>
					<path id="s" class="s3" d="m1729 1770l70.5 217.1-184.6-134.2h228.2l-184.6 134.2z"/>
				</g>
				<g id="s4">
					<path id="s" class="s3" d="m1976 300l70.5 217.1-184.6-134.2h228.2l-184.6 134.2z"/>
					<path id="s" class="s3" d="m1976 720l70.5 217.1-184.6-134.2h228.2l-184.6 134.2z"/>
					<path id="s" class="s3" d="m1976 1140l70.5 217.1-184.6-134.2h228.2l-184.6 134.2z"/>
					<path id="s" class="s3" d="m1976 1560l70.5 217.1-184.6-134.2h228.2l-184.6 134.2z"/>
				</g>
			</g>
		</g>
		<g id="s9">
			<g id="s5">
				<g id="s4">
					<path id="s" class="s3" d="m2223 90l70.5 217.1-184.6-134.2h228.2l-184.6 134.2z"/>
					<path id="s" class="s3" d="m2223 510l70.5 217.1-184.6-134.2h228.2l-184.6 134.2z"/>
					<path id="s" class="s3" d="m2223 930l70.5 217.1-184.6-134.2h228.2l-184.6 134.2z"/>
					<path id="s" class="s3" d="m2223 1350l70.5 217.1-184.6-134.2h228.2l-184.6 134.2z"/>
				</g>
				<path id="s" class="s3" d="m2223 1770l70.5 217.1-184.6-134.2h228.2l-184.6 134.2z"/>
			</g>
			<g id="s4">
				<path id="s" class="s3" d="m2470 300l70.5 217.1-184.6-134.2h228.2l-184.6 134.2z"/>
				<path id="s" class="s3" d="m2470 720l70.5 217.1-184.6-134.2h228.2l-184.6 134.2z"/>
				<path id="s" class="s3" d="m2470 1140l70.5 217.1-184.6-134.2h228.2l-184.6 134.2z"/>
				<path id="s" class="s3" d="m2470 1560l70.5 217.1-184.6-134.2h228.2l-184.6 134.2z"/>
			</g>
		</g>
		<g id="s5">
			<g id="s4">
				<path id="s" class="s3" d="m2717 90l70.5 217.1-184.6-134.2h228.2l-184.6 134.2z"/>
				<path id="s" class="s3" d="m2717 510l70.5 217.1-184.6-134.2h228.2l-184.6 134.2z"/>
				<path id="s" class="s3" d="m2717 930l70.5 217.1-184.6-134.2h228.2l-184.6 134.2z"/>
				<path id="s" class="s3" d="m2717 1350l70.5 217.1-184.6-134.2h228.2l-184.6 134.2z"/>
			</g>
			<path id="s" class="s3" d="m2717 1770l70.5 217.1-184.6-134.2h228.2l-184.6 134.2z"/>
		</g>
	</g>
</svg>